<svg width="32" height="32" viewBox="0 0 32 32" fill="none" xmlns="http://www.w3.org/2000/svg">
<path d="M10.4332 17.3335L16.9665 23.8668C17.2332 24.1335 17.3612 24.4446 17.3505 24.8001C17.3399 25.1557 17.2008 25.4668 16.9332 25.7335C16.6665 25.9779 16.3554 26.1059 15.9999 26.1175C15.6443 26.129 15.3332 26.001 15.0665 25.7335L6.26654 16.9335C6.1332 16.8001 6.03854 16.6557 5.98254 16.5001C5.92654 16.3446 5.89943 16.1779 5.90121 16.0001C5.90298 15.8224 5.93098 15.6557 5.9852 15.5001C6.03943 15.3446 6.13365 15.2001 6.26787 15.0668L15.0679 6.26681C15.3123 6.02237 15.6181 5.90015 15.9852 5.90015C16.3523 5.90015 16.6688 6.02237 16.9345 6.26681C17.2012 6.53348 17.3345 6.85037 17.3345 7.21748C17.3345 7.58459 17.2012 7.90104 16.9345 8.16681L10.4332 14.6668H25.3332C25.711 14.6668 26.0279 14.7948 26.2839 15.0508C26.5399 15.3068 26.6674 15.6233 26.6665 16.0001C26.6656 16.377 26.5376 16.6939 26.2825 16.9508C26.0274 17.2077 25.711 17.3353 25.3332 17.3335H10.4332Z" fill="#333333"/>
</svg>
