<svg width="40" height="41" viewBox="0 0 40 41" fill="none" xmlns="http://www.w3.org/2000/svg">
<path d="M11.4286 32C10.4857 32 9.67886 31.6646 9.008 30.9937C8.33714 30.3229 8.00114 29.5154 8 28.5714V11.4286C8 10.4857 8.336 9.67886 9.008 9.008C9.68 8.33714 10.4869 8.00114 11.4286 8H28.5714C29.5143 8 30.3217 8.336 30.9937 9.008C31.6657 9.68 32.0011 10.4869 32 11.4286V28.5714C32 29.5143 31.6646 30.3217 30.9937 30.9937C30.3229 31.6657 29.5154 32.0011 28.5714 32H11.4286ZM13.1429 25.1429H26.8571L22.3571 19.1429L19.1429 23.4286L16.7857 20.3L13.1429 25.1429Z" fill="#3F6AAF"/>
</svg>
