<svg width="40" height="41" viewBox="0 0 40 41" fill="none" xmlns="http://www.w3.org/2000/svg">
<path d="M18.1914 31.951C17.9954 31.8856 17.832 31.7715 17.7013 31.6085C17.5706 31.4456 17.5053 31.2439 17.5053 31.0034V23.6841H16.1983C15.4794 23.6841 14.8642 23.4284 14.3528 22.9169C13.8413 22.4054 13.5851 21.7898 13.5842 21.0701V10.614C13.5842 9.89517 13.8404 9.28 14.3528 8.76852C14.8651 8.25705 15.4803 8.00087 16.1983 8H23.8443C24.5413 8 25.1025 8.27229 25.5277 8.81688C25.9529 9.36147 26.078 9.96052 25.9028 10.614L24.0403 17.1491H25.5107C26.2949 17.1491 26.8778 17.4976 27.2595 18.1947C27.6411 18.8918 27.6028 19.5671 27.1445 20.2206L19.3024 31.5589C19.1717 31.7549 19.0031 31.8856 18.7966 31.951C18.5901 32.0163 18.3884 32.0163 18.1914 31.951Z" fill="#3F6AAF"/>
</svg>
